<svg version="1.1" id="Layer_1" xmlns="http://www.w3.org/2000/svg" xmlns:xlink="http://www.w3.org/1999/xlink" x="0px" y="0px"
	 width="100%" viewBox="0 0 362 400" enable-background="new 0 0 362 400" xml:space="preserve">
<path fill="#000000" opacity="1.000000" stroke="none" 
	d="
M1.000000,115.000000 
	C1.000000,76.666672 1.000000,38.833347 1.000000,1.000015 
	C121.666634,1.000010 242.333267,1.000010 362.999939,1.000005 
	C362.999939,134.333282 362.999939,267.666565 362.999969,400.999878 
	C242.333405,400.999939 121.666817,400.999939 1.000111,400.999969 
	C1.000000,305.833344 1.000000,210.666672 1.000000,115.000000 
M24.063156,329.556396 
	C24.369385,329.663971 24.675613,329.771545 25.445614,330.051605 
	C25.445614,330.051605 25.927586,330.163574 25.983620,330.904724 
	C27.654526,331.543823 29.325432,332.182922 31.787773,332.973877 
	C32.859467,332.942169 33.931156,332.910461 35.723495,333.025909 
	C40.227753,333.001129 44.776295,333.364227 49.225403,332.856323 
	C55.201908,332.174072 61.403706,326.986938 62.137745,322.399994 
	C62.437782,321.634949 62.737816,320.869873 63.497055,319.890808 
	C63.344509,319.557312 63.191967,319.223816 63.012344,318.164124 
	C62.958324,317.441620 62.904308,316.719086 62.997772,315.271637 
	C63.032772,314.533844 63.067772,313.796051 63.032848,313.031067 
	C63.032848,313.031067 63.058662,313.101501 63.757145,313.009766 
	C64.208733,312.352905 64.660316,311.696075 65.771240,310.746277 
	C68.996346,307.097137 70.273323,303.281128 66.635223,299.145172 
	C65.174164,297.484161 62.955158,296.170135 62.225716,294.260925 
	C61.155502,291.459747 61.590107,288.087067 60.536259,285.275482 
	C58.138348,278.878021 60.996235,273.637085 64.016090,268.695923 
	C66.434494,264.738831 69.986893,261.474823 73.542931,257.309479 
	C75.224106,263.780487 76.353333,269.160797 78.029388,274.364960 
	C81.620262,285.514740 85.291458,296.647827 89.333656,307.639221 
	C91.464096,313.432281 94.324623,318.972137 97.073410,324.518280 
	C99.910332,330.242249 102.270081,336.418823 106.158173,341.358795 
	C113.317078,350.454407 121.026245,359.217010 129.317078,367.285004 
	C134.502136,372.330719 140.985992,376.154266 147.229767,379.964661 
	C152.396515,383.117798 157.869629,386.023560 163.572800,387.963562 
	C168.242599,389.552063 173.682159,390.813232 178.364914,389.954193 
	C184.685425,388.794708 190.617676,385.489288 196.698486,383.059540 
	C207.055557,378.921204 214.070129,370.782135 221.401794,362.555237 
	C224.115677,362.889709 227.171387,363.198883 230.205460,363.652679 
	C239.679565,365.069702 249.108231,367.285431 258.626068,367.761810 
	C266.571228,368.159485 273.158386,364.041443 278.702789,357.972778 
	C285.724579,350.287109 289.130005,340.008118 297.703400,333.294586 
	C300.812714,330.859741 302.480957,328.740082 306.285797,330.936188 
	C306.945312,331.316833 308.024170,331.510895 308.692383,331.245331 
	C311.987885,329.935608 315.981689,329.161285 318.204651,326.776855 
	C319.863281,324.997772 320.458435,320.435699 319.350769,318.183105 
	C314.844696,309.019318 309.460022,300.211121 300.004639,295.204895 
	C296.676239,293.442627 291.955750,290.760101 289.352783,291.895416 
	C283.421631,294.482239 278.381226,299.135254 273.030243,303.019470 
	C269.825073,305.346100 266.770325,307.768951 266.894379,312.405182 
	C266.919220,313.333496 265.785858,314.292816 264.741058,315.940277 
	C259.441406,306.897125 254.670685,298.756561 249.883789,290.588379 
	C255.061478,287.286499 259.926697,284.171021 264.804810,281.075958 
	C272.630646,276.110657 275.960297,268.495026 276.087830,259.735535 
	C276.159180,254.836609 276.502472,253.440094 281.269257,254.025452 
	C289.368713,255.020035 296.692902,258.003235 303.288147,262.797150 
	C314.031860,270.606445 325.030457,272.948547 337.181244,265.495544 
	C344.889160,260.767670 351.403748,255.262238 355.049408,246.794067 
	C356.674408,243.019455 355.670471,239.763992 352.050629,238.567947 
	C348.644318,237.442490 346.926483,238.879181 345.746460,242.387726 
	C343.218994,249.902573 337.195557,254.681458 330.755005,258.596039 
	C324.058777,262.665985 317.251007,261.390442 311.090454,256.938751 
	C302.829712,250.969498 294.097839,245.434631 283.853943,244.808090 
	C277.456512,244.416824 272.474731,244.909546 273.728119,236.402328 
	C273.747284,236.272202 273.553497,236.123535 273.507477,235.969116 
	C271.023468,227.630142 268.584381,219.277512 266.049774,210.953964 
	C264.633636,206.303452 265.292938,202.684235 269.299652,199.210556 
	C280.959045,189.102402 289.485474,176.459946 297.791229,163.017715 
	C299.228760,162.355682 300.666260,161.693665 302.754364,160.691177 
	C304.449280,157.127441 306.144196,153.563705 307.976105,149.293274 
	C308.001068,148.574051 308.026031,147.854813 308.648926,146.869904 
	C308.733917,146.251694 308.818909,145.633499 309.161316,144.365982 
	C309.458679,143.293549 309.756042,142.221115 310.719727,140.868088 
	C310.852570,140.422104 310.985382,139.976135 311.839508,139.539917 
	C312.835999,138.239502 313.650360,136.728699 314.863464,135.678452 
	C318.373993,132.639160 322.371307,130.084305 325.476562,126.696724 
	C326.570160,125.503639 326.329102,122.090477 325.428192,120.346748 
	C324.531677,118.611473 322.041656,117.699478 320.206024,116.395004 
	C321.579010,113.428711 325.451660,110.768021 322.452423,107.400421 
	C320.445374,105.146896 317.186707,104.008072 314.023743,102.088646 
	C317.436981,97.764000 316.842377,92.718948 312.224121,88.894394 
	C307.739471,85.180443 303.581879,88.701012 299.630310,91.112366 
	C297.446320,81.743324 291.806030,79.197014 285.610626,85.147888 
	C281.154205,89.428421 277.318634,94.581566 274.177124,99.917168 
	C272.385925,102.959358 270.893097,104.424690 267.449005,104.003555 
	C265.479309,103.762718 263.432495,103.755562 261.463379,103.995605 
	C258.119354,104.403252 255.295715,105.822083 256.035278,109.824532 
	C256.703949,113.443428 257.377533,117.297241 259.146942,120.426682 
	C262.584290,126.506180 262.547241,127.181511 258.163055,133.069275 
	C256.438019,135.385925 254.624390,139.768555 255.671967,141.570236 
	C257.797943,145.226685 256.269806,147.002182 254.290649,149.263519 
	C252.517197,151.289825 250.710800,153.287323 248.671982,155.574539 
	C247.407516,153.788239 246.648819,152.738266 245.912704,151.672684 
	C242.966629,147.407837 240.505035,142.515381 234.069000,142.880692 
	C233.792999,142.896362 233.447983,141.696091 233.853622,140.693481 
	C234.178024,140.313065 234.784241,139.933914 234.785995,139.552032 
	C234.845001,126.613602 235.488953,113.630913 234.606888,100.753357 
	C234.106628,93.450310 231.588501,86.140579 229.075439,79.159157 
	C226.305298,71.463562 223.247559,63.678173 218.970703,56.763409 
	C212.499496,46.300789 203.883194,37.509953 193.799316,30.280611 
	C189.675430,27.324120 186.048111,23.250353 181.497467,21.400646 
	C171.509247,17.340715 161.249710,13.622788 150.768707,11.206109 
	C142.722076,9.350746 134.108459,8.773849 125.853661,9.300452 
	C115.522827,9.959496 105.047470,11.408366 95.084290,14.150533 
	C73.142075,20.189693 53.014313,29.858263 38.483147,48.327385 
	C34.013561,54.008232 29.152309,59.740459 26.310289,66.252174 
	C22.680151,74.569649 20.718132,83.649139 18.390249,92.493141 
	C14.792625,106.161102 13.993203,119.899094 16.788315,133.951782 
	C18.703934,143.582733 21.392559,152.692490 25.727266,161.575134 
	C30.777884,171.924835 36.935993,181.057053 45.807354,188.497055 
	C50.700607,192.600769 57.503799,195.510788 57.268764,202.433044 
	C50.182621,209.787552 42.948059,216.292252 36.966351,223.795685 
	C31.342997,230.849625 25.758114,238.451111 22.489754,246.732605 
	C18.547100,256.722656 16.883224,267.663025 18.083263,278.675110 
	C18.219398,279.924347 19.218016,281.813873 18.733358,282.279938 
	C14.964709,285.904205 17.968365,289.709717 18.161024,293.393585 
	C18.324562,296.520538 19.147421,299.665741 18.929270,302.749878 
	C18.306522,311.554077 19.047974,320.044128 23.072876,328.545013 
	C23.360758,328.741638 23.648640,328.938263 23.937309,329.061768 
	C23.937309,329.061768 23.864309,329.065582 24.063156,329.556396 
z"/>
<path fill="#AFB8C1" opacity="1.000000" stroke="none" 
	d="
M63.037849,320.104828 
	C62.737816,320.869873 62.437782,321.634949 61.650948,322.694153 
	C59.752140,322.653595 58.340137,322.318939 56.976181,321.600891 
	C57.014950,318.792694 57.189301,316.349731 56.950882,313.947693 
	C56.638027,310.795715 56.523251,308.253510 60.384583,306.848267 
	C64.095818,305.497620 63.194485,302.000763 60.877174,300.674286 
	C56.590981,298.220764 56.080647,294.382080 54.903500,290.379303 
	C54.329693,288.428162 52.087994,285.525787 50.596203,285.522736 
	C41.608391,285.504242 32.619106,286.201141 24.871025,286.595490 
	C24.871025,296.447815 23.900364,305.183167 25.094521,313.611786 
	C26.968208,326.836731 26.478943,326.856049 37.970592,328.390503 
	C36.964195,330.111847 35.983521,331.495300 35.002850,332.878754 
	C33.931156,332.910461 32.859467,332.942169 31.365795,332.540894 
	C30.242556,328.955231 28.577045,328.290161 25.927586,330.163574 
	C25.927586,330.163574 25.445614,330.051605 25.051218,329.799408 
	C24.415195,329.349548 24.151024,329.189026 23.864309,329.065582 
	C23.864309,329.065582 23.937309,329.061768 23.836666,328.892639 
	C23.587097,328.453644 23.396574,328.217285 23.164454,328.014465 
	C19.047974,320.044128 18.306522,311.554077 18.929270,302.749878 
	C19.147421,299.665741 18.324562,296.520538 18.161024,293.393585 
	C17.968365,289.709717 14.964709,285.904205 18.733358,282.279938 
	C19.218016,281.813873 18.219398,279.924347 18.083263,278.675110 
	C16.883224,267.663025 18.547100,256.722656 22.489754,246.732605 
	C25.758114,238.451111 31.342997,230.849625 36.966351,223.795685 
	C42.948059,216.292252 50.182621,209.787552 57.268764,202.433044 
	C57.503799,195.510788 50.700607,192.600769 45.807354,188.497055 
	C36.935993,181.057053 30.777884,171.924835 25.727266,161.575134 
	C21.392559,152.692490 18.703934,143.582733 16.788315,133.951782 
	C13.993203,119.899094 14.792625,106.161102 18.390249,92.493141 
	C20.718132,83.649139 22.680151,74.569649 26.310289,66.252174 
	C29.152309,59.740459 34.013561,54.008232 38.483147,48.327385 
	C53.014313,29.858263 73.142075,20.189693 95.084290,14.150533 
	C105.047470,11.408366 115.522827,9.959496 125.853661,9.300452 
	C134.108459,8.773849 142.722076,9.350746 150.768707,11.206109 
	C161.249710,13.622788 171.509247,17.340715 181.497467,21.400646 
	C186.048111,23.250353 189.675430,27.324120 193.799316,30.280611 
	C203.883194,37.509953 212.499496,46.300789 218.970703,56.763409 
	C223.247559,63.678173 226.305298,71.463562 229.075439,79.159157 
	C231.588501,86.140579 234.106628,93.450310 234.606888,100.753357 
	C235.488953,113.630913 234.845001,126.613602 234.785995,139.552032 
	C234.784241,139.933914 234.178024,140.313065 233.175110,140.726318 
	C231.224411,140.138992 229.952209,139.518814 228.750000,138.449371 
	C229.119736,133.897064 229.868851,129.767868 229.631714,125.696114 
	C229.014999,115.106689 227.965210,104.542488 227.074951,93.548569 
	C223.906036,72.486061 214.372101,55.326355 198.777435,41.511124 
	C197.964966,40.791363 196.766647,40.290447 195.682098,40.128456 
	C186.184616,38.709904 176.672165,37.391712 166.750458,35.931149 
	C160.404160,35.110680 154.484665,34.003441 148.535217,33.808231 
	C142.683594,33.616230 136.801590,34.349609 130.571014,34.503292 
	C128.388306,34.227345 126.517738,33.803135 124.754852,34.075611 
	C114.274124,35.695560 103.674324,36.887093 93.401085,39.395966 
	C85.616501,41.297081 78.258926,44.946663 70.341957,47.708145 
	C65.142212,50.525478 60.311848,53.452839 55.209511,56.464306 
	C54.522873,56.930576 54.108212,57.312744 53.351295,57.757805 
	C49.553379,60.882500 46.097717,63.944302 42.335579,67.103333 
	C37.390900,72.522934 31.495758,77.202286 28.375641,83.301285 
	C21.839474,96.077751 20.456724,110.054260 21.740833,124.461098 
	C23.105335,139.769882 26.874466,154.100388 35.103954,167.185791 
	C40.549217,175.844086 47.476986,182.957001 53.514931,187.173019 
	C57.859203,184.048035 61.377514,181.517197 65.221878,179.070801 
	C66.696136,180.402313 67.844353,181.649368 68.674210,183.002075 
	C66.609627,184.805573 64.863380,186.503418 63.117138,188.201279 
	C63.371803,188.676987 63.626465,189.152710 63.881130,189.628433 
	C67.998039,189.201416 72.114952,188.774399 76.614685,188.399521 
	C77.803162,188.624252 78.631737,189.017899 79.411087,188.937042 
	C97.499870,187.059982 115.664833,185.682144 133.639450,183.021301 
	C145.880493,181.209198 157.853836,177.588699 169.963394,175.174164 
	C170.418671,176.761307 170.857437,177.951126 170.985229,179.362808 
	C135.259293,190.929703 98.657524,194.190903 61.222954,194.864136 
	C62.020779,198.207367 62.996037,200.743240 63.110909,203.317505 
	C63.188236,205.050507 62.590267,207.706635 61.370800,208.465424 
	C50.038391,215.516800 42.191769,225.750671 35.031796,236.618271 
	C27.436300,248.146942 23.048946,260.680603 23.749197,274.705200 
	C24.050665,280.743011 24.536694,281.223511 30.430614,280.885162 
	C35.895615,280.571411 41.445301,279.583893 46.804928,280.207001 
	C51.847908,280.793304 53.873058,279.522278 55.246796,274.658325 
	C57.658112,266.120697 60.984348,257.993500 70.266220,254.199799 
	C75.321922,252.133408 78.655510,253.497208 80.204163,258.654144 
	C84.830307,274.058990 89.313408,289.515991 94.389008,304.774078 
	C99.196739,319.226959 106.774078,332.393555 116.008133,344.418365 
	C125.151695,356.325287 136.139313,366.473114 148.875717,374.592499 
	C162.281250,383.138458 175.969818,388.987061 191.682770,380.088013 
	C200.552582,375.064545 208.336380,368.900177 213.263153,362.693359 
	C209.627106,358.129333 206.682114,354.078796 203.319366,350.411285 
	C202.200928,349.191498 199.956543,348.249054 198.318542,348.374695 
	C176.158264,350.074829 154.101974,349.355804 132.151489,345.893494 
	C128.563873,345.327637 124.984062,344.444305 121.564110,343.242523 
	C120.502007,342.869324 119.979340,340.960999 119.209717,339.755432 
	C120.463844,339.256805 121.776855,338.213989 122.963127,338.342346 
	C137.286606,339.892334 151.557663,342.069794 165.912827,343.133087 
	C175.460861,343.840332 185.125916,343.133636 194.729568,342.800079 
	C196.949417,342.722961 199.639618,342.190582 201.252518,340.839783 
	C214.713516,329.566284 227.920685,317.989746 241.371918,306.704254 
	C242.766434,305.534271 245.250778,305.663269 247.229462,305.189545 
	C246.713455,307.035492 246.781998,309.509155 245.585007,310.623840 
	C238.671097,317.062378 231.504669,323.233948 224.332367,329.389465 
	C218.439972,334.446564 212.420441,339.355438 206.288025,344.471191 
	C210.485519,350.598297 214.970566,355.648315 222.987122,356.710297 
	C231.524811,357.841339 239.918335,360.019623 248.417862,361.492096 
	C255.798645,362.770782 263.015991,362.587921 269.455963,357.876648 
	C276.937042,352.403748 281.520355,344.655304 285.753967,336.751282 
	C286.508575,335.342468 285.514740,332.307617 284.370453,330.709290 
	C281.681396,326.953369 278.297821,323.703491 275.419617,320.071075 
	C273.485474,317.630127 271.979340,316.341614 269.081848,319.064758 
	C265.800262,322.148895 262.408691,321.706635 259.837189,317.843597 
	C257.818420,314.810944 256.003937,311.643005 254.016861,308.588409 
	C251.049133,304.026367 248.009430,299.511169 244.975861,294.695190 
	C244.663193,293.949402 244.374985,293.484436 244.003601,292.621887 
	C240.629974,277.699066 237.487885,263.138031 233.988251,248.663452 
	C232.160461,241.103729 229.673523,233.704636 227.542908,226.216339 
	C226.359100,222.055786 227.429932,219.123001 231.976334,217.787842 
	C234.178070,217.141266 236.269058,215.970627 238.264008,214.790192 
	C254.214920,205.352081 268.669525,194.049026 279.800842,179.110092 
	C284.174438,173.240479 287.263306,166.413528 291.304382,159.999908 
	C294.467285,159.323410 297.129150,158.897507 297.052094,163.136429 
	C289.485474,176.459946 280.959045,189.102402 269.299652,199.210556 
	C265.292938,202.684235 264.633636,206.303452 266.049774,210.953964 
	C268.584381,219.277512 271.023468,227.630142 273.507477,235.969116 
	C273.553497,236.123535 273.747284,236.272202 273.728119,236.402328 
	C272.474731,244.909546 277.456512,244.416824 283.853943,244.808090 
	C294.097839,245.434631 302.829712,250.969498 311.090454,256.938751 
	C317.251007,261.390442 324.058777,262.665985 330.755005,258.596039 
	C337.195557,254.681458 343.218994,249.902573 345.746460,242.387726 
	C346.926483,238.879181 348.644318,237.442490 352.050629,238.567947 
	C355.670471,239.763992 356.674408,243.019455 355.049408,246.794067 
	C351.403748,255.262238 344.889160,260.767670 337.181244,265.495544 
	C325.030457,272.948547 314.031860,270.606445 303.288147,262.797150 
	C296.692902,258.003235 289.368713,255.020035 281.269257,254.025452 
	C276.502472,253.440094 276.159180,254.836609 276.087830,259.735535 
	C275.960297,268.495026 272.630646,276.110657 264.804810,281.075958 
	C259.926697,284.171021 255.061478,287.286499 249.883789,290.588379 
	C254.670685,298.756561 259.441406,306.897125 264.741058,315.940277 
	C265.785858,314.292816 266.919220,313.333496 266.894379,312.405182 
	C266.770325,307.768951 269.825073,305.346100 273.030243,303.019470 
	C278.381226,299.135254 283.421631,294.482239 289.352783,291.895416 
	C291.955750,290.760101 296.676239,293.442627 300.004639,295.204895 
	C309.460022,300.211121 314.844696,309.019318 319.350769,318.183105 
	C320.458435,320.435699 319.863281,324.997772 318.204651,326.776855 
	C315.981689,329.161285 311.987885,329.935608 308.692383,331.245331 
	C308.024170,331.510895 306.945312,331.316833 306.285797,330.936188 
	C302.480957,328.740082 300.812714,330.859741 297.703400,333.294586 
	C289.130005,340.008118 285.724579,350.287109 278.702789,357.972778 
	C273.158386,364.041443 266.571228,368.159485 258.626068,367.761810 
	C249.108231,367.285431 239.679565,365.069702 230.205460,363.652679 
	C227.171387,363.198883 224.115677,362.889709 221.401794,362.555237 
	C214.070129,370.782135 207.055557,378.921204 196.698486,383.059540 
	C190.617676,385.489288 184.685425,388.794708 178.364914,389.954193 
	C173.682159,390.813232 168.242599,389.552063 163.572800,387.963562 
	C157.869629,386.023560 152.396515,383.117798 147.229767,379.964661 
	C140.985992,376.154266 134.502136,372.330719 129.317078,367.285004 
	C121.026245,359.217010 113.317078,350.454407 106.158173,341.358795 
	C102.270081,336.418823 99.910332,330.242249 97.073410,324.518280 
	C94.324623,318.972137 91.464096,313.432281 89.333656,307.639221 
	C85.291458,296.647827 81.620262,285.514740 78.029388,274.364960 
	C76.353333,269.160797 75.224106,263.780487 73.542931,257.309479 
	C69.986893,261.474823 66.434494,264.738831 64.016090,268.695923 
	C60.996235,273.637085 58.138348,278.878021 60.536259,285.275482 
	C61.590107,288.087067 61.155502,291.459747 62.225716,294.260925 
	C62.955158,296.170135 65.174164,297.484161 66.635223,299.145172 
	C70.273323,303.281128 68.996346,307.097137 65.132919,310.969604 
	C64.015953,311.829163 63.537312,312.465332 63.058666,313.101501 
	C63.058662,313.101501 63.032848,313.031067 62.771072,313.113495 
	C62.622963,314.129486 62.736629,315.063019 62.850292,315.996582 
	C62.904308,316.719086 62.958324,317.441620 63.018524,318.830811 
	C63.029087,319.699951 63.033466,319.902405 63.037849,320.104828 
M249.176788,283.283936 
	C265.005341,276.688660 270.295715,270.350037 270.299103,256.599884 
	C270.300568,250.539703 269.156769,244.369568 267.728699,238.443176 
	C265.298065,228.356415 262.231812,218.422806 259.362549,208.174545 
	C251.406372,212.877243 244.187805,217.530945 236.596832,221.466278 
	C232.846741,223.410400 232.618484,225.572021 233.593567,229.057693 
	C238.633118,247.072983 243.537598,265.126068 249.176788,283.283936 
M37.091446,63.466858 
	C38.163544,62.680325 39.325645,61.990879 40.294369,61.092838 
	C57.522793,45.121384 78.101547,36.362877 100.989731,32.037144 
	C125.281578,27.446129 149.474365,26.493633 173.797684,31.524950 
	C177.612442,32.314037 181.590790,32.312241 186.735977,32.791992 
	C180.705872,26.171947 174.135315,24.140797 167.521591,21.831810 
	C147.422501,14.814789 126.970924,12.898355 106.117737,17.116041 
	C77.799179,22.843645 53.567261,35.414330 36.894756,60.006058 
	C36.273758,60.922020 36.586987,62.471359 37.091446,63.466858 
M281.602173,304.130829 
	C278.981598,306.171204 276.361023,308.211578 273.574707,310.380981 
	C280.248627,317.630127 286.172516,324.064606 292.220886,330.634308 
	C297.282593,324.411804 298.769714,320.687073 306.518463,325.247528 
	C306.937622,325.494202 307.447693,325.660400 307.931519,325.711426 
	C311.457794,326.083374 315.504272,322.471832 314.082611,319.988770 
	C311.136505,314.843018 308.390472,309.291229 304.302216,305.150391 
	C295.284607,296.016815 292.705231,296.209229 281.602173,304.130829 
z"/>
<path fill="#AEB7C0" opacity="1.000000" stroke="none" 
	d="
M297.421661,163.077072 
	C297.129150,158.897507 294.467285,159.323410 290.951904,159.946747 
	C283.054749,156.518082 275.772430,153.320145 268.742249,149.640472 
	C265.018066,147.691177 262.730804,147.803574 259.984894,151.407547 
	C251.562531,162.461746 240.622147,169.528732 226.334000,169.864227 
	C222.933777,169.944061 219.510376,168.324631 216.067764,167.636169 
	C214.521652,167.326981 212.791138,166.967957 211.336151,167.354202 
	C206.689133,168.587845 202.152618,170.230148 197.535751,171.586395 
	C188.803085,174.151688 180.044189,176.627777 171.296204,179.140930 
	C170.857437,177.951126 170.418671,176.761307 170.248535,174.969391 
	C179.683167,171.300171 188.849167,168.233047 198.428162,165.159363 
	C204.144714,164.660782 208.724380,162.479156 213.195435,160.044052 
	C213.190338,159.369476 213.185226,158.694885 213.180130,158.020294 
	C209.699081,157.004227 206.218033,155.988159 202.786194,154.592865 
	C203.316772,152.767410 203.798141,151.321182 204.658691,149.901230 
	C209.705109,151.615311 214.372345,153.303085 219.659454,155.215027 
	C220.522217,153.828476 221.899734,151.825455 223.059448,149.703400 
	C225.005951,146.141693 226.813812,142.504227 228.679993,138.898636 
	C229.952209,139.518814 231.224411,140.138992 232.815857,140.910721 
	C233.447983,141.696091 233.792999,142.896362 234.069000,142.880692 
	C240.505035,142.515381 242.966629,147.407837 245.912704,151.672684 
	C246.648819,152.738266 247.407516,153.788239 248.671982,155.574539 
	C250.710800,153.287323 252.517197,151.289825 254.290649,149.263519 
	C256.269806,147.002182 257.797943,145.226685 255.671967,141.570236 
	C254.624390,139.768555 256.438019,135.385925 258.163055,133.069275 
	C262.547241,127.181511 262.584290,126.506180 259.146942,120.426682 
	C257.377533,117.297241 256.703949,113.443428 256.035278,109.824532 
	C255.295715,105.822083 258.119354,104.403252 261.463379,103.995605 
	C263.432495,103.755562 265.479309,103.762718 267.449005,104.003555 
	C270.893097,104.424690 272.385925,102.959358 274.177124,99.917168 
	C277.318634,94.581566 281.154205,89.428421 285.610626,85.147888 
	C291.806030,79.197014 297.446320,81.743324 299.630310,91.112366 
	C303.581879,88.701012 307.739471,85.180443 312.224121,88.894394 
	C316.842377,92.718948 317.436981,97.764000 314.023743,102.088646 
	C317.186707,104.008072 320.445374,105.146896 322.452423,107.400421 
	C325.451660,110.768021 321.579010,113.428711 320.206024,116.395004 
	C322.041656,117.699478 324.531677,118.611473 325.428192,120.346748 
	C326.329102,122.090477 326.570160,125.503639 325.476562,126.696724 
	C322.371307,130.084305 318.373993,132.639160 314.863464,135.678452 
	C313.650360,136.728699 312.835999,138.239502 311.349609,139.832611 
	C310.590942,140.466431 310.322174,140.807556 310.053406,141.148682 
	C309.756042,142.221115 309.458679,143.293549 308.848206,144.917664 
	C308.373779,146.024780 308.212402,146.580185 308.051025,147.135590 
	C308.026031,147.854813 308.001068,148.574051 307.570465,149.524521 
	C305.612335,149.123016 304.059814,148.490250 302.600891,147.562042 
	C303.023560,146.516159 303.352692,145.765732 304.020172,144.930939 
	C304.598633,143.577728 304.838745,142.308838 305.108398,140.666199 
	C306.335632,135.522217 307.809021,131.267563 313.402283,129.513901 
	C315.947601,128.715866 317.890228,125.995613 320.641541,123.700752 
	C318.711182,122.939659 317.709991,122.370300 316.637238,122.151283 
	C311.127594,121.026360 310.574677,119.552528 313.865173,115.212189 
	C315.095886,113.588799 315.885529,111.631004 317.496246,108.695992 
	C314.319275,109.379021 312.456268,109.978691 310.557831,110.128075 
	C308.876160,110.260391 306.722748,110.438278 305.603394,109.552490 
	C304.857452,108.962181 305.179901,106.401871 305.700287,104.968750 
	C306.602112,102.485184 308.140045,100.239944 309.186951,97.798584 
	C309.705475,96.589455 309.724915,95.166298 309.970154,93.839981 
	C309.595215,93.505943 309.220245,93.171906 308.845306,92.837868 
	C305.979858,94.271751 303.169556,95.834885 300.227631,97.089455 
	C298.550751,97.804565 296.410217,98.724556 294.949646,98.211311 
	C293.935425,97.854919 293.564240,95.250175 293.196930,93.585670 
	C292.805237,91.810608 292.756042,89.959953 292.557312,88.142296 
	C291.882202,87.887535 291.207092,87.632774 290.531982,87.378014 
	C286.141815,93.684181 281.520691,99.846764 277.468933,106.363350 
	C275.714996,109.184273 273.942474,110.377357 270.696411,110.086288 
	C267.681671,109.815964 264.623657,110.028618 261.584686,110.028618 
	C261.309296,110.516106 261.033905,111.003593 260.758514,111.491074 
	C263.248718,115.285698 265.517242,119.253922 268.306000,122.814713 
	C270.207214,125.242294 270.592285,126.787682 268.147369,129.112091 
	C266.030151,131.124954 264.263763,133.671539 262.951141,136.287720 
	C262.399353,137.387573 262.949219,140.257095 263.787598,140.653763 
	C275.113373,146.012283 286.578339,151.076675 298.083344,156.558914 
	C299.473145,158.279846 300.788483,159.655746 302.103790,161.031631 
	C300.666260,161.693665 299.228760,162.355682 297.421661,163.077072 
M222.447891,160.084793 
	C220.629898,162.365585 220.169922,165.065781 223.879379,164.622955 
	C230.605927,163.819931 237.205032,161.949356 245.373093,160.199722 
	C241.851578,155.659302 239.860153,152.178650 237.019608,149.652969 
	C233.193039,146.250549 230.342316,147.227722 227.957047,151.623611 
	C226.468750,154.366425 224.649139,156.929459 222.447891,160.084793 
z"/>
<path fill="#B2BCC4" opacity="1.000000" stroke="none" 
	d="
M35.363174,332.952332 
	C35.983521,331.495300 36.964195,330.111847 38.412239,328.351837 
	C45.730518,328.493011 51.740952,326.478699 56.928131,321.984283 
	C58.340137,322.318939 59.752140,322.653595 61.531990,322.995361 
	C61.403706,326.986938 55.201908,332.174072 49.225403,332.856323 
	C44.776295,333.364227 40.227753,333.001129 35.363174,332.952332 
z"/>
<path fill="#AFB8C1" opacity="1.000000" stroke="none" 
	d="
M302.507324,147.857483 
	C304.059814,148.490250 305.612335,149.123016 307.501953,149.877869 
	C306.144196,153.563705 304.449280,157.127441 302.429077,160.861404 
	C300.788483,159.655746 299.473145,158.279846 298.296570,156.274292 
	C299.792664,153.048920 301.149994,150.453201 302.507324,147.857483 
z"/>
<path fill="#B2BCC4" opacity="1.000000" stroke="none" 
	d="
M25.955603,330.534149 
	C28.577045,328.290161 30.242556,328.955231 30.970076,332.464966 
	C29.325432,332.182922 27.654526,331.543823 25.955603,330.534149 
z"/>
<path fill="#B2BCC4" opacity="1.000000" stroke="none" 
	d="
M62.924034,315.634094 
	C62.736629,315.063019 62.622963,314.129486 62.806038,313.127075 
	C63.067772,313.796051 63.032772,314.533844 62.924034,315.634094 
z"/>
<path fill="#B2BCC4" opacity="1.000000" stroke="none" 
	d="
M63.407906,313.055634 
	C63.537312,312.465332 64.015953,311.829163 64.803253,311.116089 
	C64.660316,311.696075 64.208733,312.352905 63.407906,313.055634 
z"/>
<path fill="#AFB8C1" opacity="1.000000" stroke="none" 
	d="
M308.349976,147.002747 
	C308.212402,146.580185 308.373779,146.024780 308.719513,145.242325 
	C308.818909,145.633499 308.733917,146.251694 308.349976,147.002747 
z"/>
<path fill="#AFB8C1" opacity="1.000000" stroke="none" 
	d="
M310.386566,141.008392 
	C310.322174,140.807556 310.590942,140.466431 310.988953,139.827728 
	C310.985382,139.976135 310.852570,140.422104 310.386566,141.008392 
z"/>
<path fill="#B2BCC4" opacity="1.000000" stroke="none" 
	d="
M63.267452,319.997803 
	C63.033466,319.902405 63.029087,319.699951 63.032063,319.193909 
	C63.191967,319.223816 63.344509,319.557312 63.267452,319.997803 
z"/>
<path fill="#B2BCC4" opacity="1.000000" stroke="none" 
	d="
M23.118664,328.279724 
	C23.396574,328.217285 23.587097,328.453644 23.836271,328.929199 
	C23.648640,328.938263 23.360758,328.741638 23.118664,328.279724 
z"/>
<path fill="#B2BCC4" opacity="1.000000" stroke="none" 
	d="
M23.963734,329.310974 
	C24.151024,329.189026 24.415195,329.349548 24.819332,329.713165 
	C24.675613,329.771545 24.369385,329.663971 23.963734,329.310974 
z"/>
<path fill="#FEFEFE" opacity="1.000000" stroke="none" 
	d="
M170.985229,179.362808 
	C180.044189,176.627777 188.803085,174.151688 197.535751,171.586395 
	C202.152618,170.230148 206.689133,168.587845 211.336151,167.354202 
	C212.791138,166.967957 214.521652,167.326981 216.067764,167.636169 
	C219.510376,168.324631 222.933777,169.944061 226.334000,169.864227 
	C240.622147,169.528732 251.562531,162.461746 259.984894,151.407547 
	C262.730804,147.803574 265.018066,147.691177 268.742249,149.640472 
	C275.772430,153.320145 283.054749,156.518082 290.584747,159.969421 
	C287.263306,166.413528 284.174438,173.240479 279.800842,179.110092 
	C268.669525,194.049026 254.214920,205.352081 238.264008,214.790192 
	C236.269058,215.970627 234.178070,217.141266 231.976334,217.787842 
	C227.429932,219.123001 226.359100,222.055786 227.542908,226.216339 
	C229.673523,233.704636 232.160461,241.103729 233.988251,248.663452 
	C237.487885,263.138031 240.629974,277.699066 243.626785,292.617432 
	C241.984909,293.605530 240.629776,294.185303 239.289597,294.797852 
	C230.870758,298.645782 222.722549,303.325775 213.975891,306.160004 
	C200.925522,310.388824 187.557800,313.800659 174.137146,316.685852 
	C154.677444,320.869415 135.041870,324.231659 115.513634,328.107178 
	C114.282440,328.351562 113.330719,330.004059 112.248985,331.001465 
	C113.403381,331.673584 114.619385,333.009918 115.702126,332.909454 
	C122.463387,332.282318 129.312210,331.862396 135.914856,330.396088 
	C158.261017,325.433380 180.495987,319.972595 202.814438,314.881836 
	C215.706635,311.941162 227.639374,306.603760 239.322037,300.672424 
	C241.593353,299.519257 243.126617,296.912384 245.000336,294.976044 
	C248.009430,299.511169 251.049133,304.026367 254.016861,308.588409 
	C256.003937,311.643005 257.818420,314.810944 259.837189,317.843597 
	C262.408691,321.706635 265.800262,322.148895 269.081848,319.064758 
	C271.979340,316.341614 273.485474,317.630127 275.419617,320.071075 
	C278.297821,323.703491 281.681396,326.953369 284.370453,330.709290 
	C285.514740,332.307617 286.508575,335.342468 285.753967,336.751282 
	C281.520355,344.655304 276.937042,352.403748 269.455963,357.876648 
	C263.015991,362.587921 255.798645,362.770782 248.417862,361.492096 
	C239.918335,360.019623 231.524811,357.841339 222.987122,356.710297 
	C214.970566,355.648315 210.485519,350.598297 206.288025,344.471191 
	C212.420441,339.355438 218.439972,334.446564 224.332367,329.389465 
	C231.504669,323.233948 238.671097,317.062378 245.585007,310.623840 
	C246.781998,309.509155 246.713455,307.035492 247.229462,305.189545 
	C245.250778,305.663269 242.766434,305.534271 241.371918,306.704254 
	C227.920685,317.989746 214.713516,329.566284 201.252518,340.839783 
	C199.639618,342.190582 196.949417,342.722961 194.729568,342.800079 
	C185.125916,343.133636 175.460861,343.840332 165.912827,343.133087 
	C151.557663,342.069794 137.286606,339.892334 122.963127,338.342346 
	C121.776855,338.213989 120.463844,339.256805 119.209717,339.755432 
	C119.979340,340.960999 120.502007,342.869324 121.564110,343.242523 
	C124.984062,344.444305 128.563873,345.327637 132.151489,345.893494 
	C154.101974,349.355804 176.158264,350.074829 198.318542,348.374695 
	C199.956543,348.249054 202.200928,349.191498 203.319366,350.411285 
	C206.682114,354.078796 209.627106,358.129333 213.263153,362.693359 
	C208.336380,368.900177 200.552582,375.064545 191.682770,380.088013 
	C175.969818,388.987061 162.281250,383.138458 148.875717,374.592499 
	C136.139313,366.473114 125.151695,356.325287 116.008133,344.418365 
	C106.774078,332.393555 99.196739,319.226959 94.389008,304.774078 
	C89.313408,289.515991 84.830307,274.058990 80.204163,258.654144 
	C78.655510,253.497208 75.321922,252.133408 70.266220,254.199799 
	C60.984348,257.993500 57.658112,266.120697 55.246796,274.658325 
	C53.873058,279.522278 51.847908,280.793304 46.804928,280.207001 
	C41.445301,279.583893 35.895615,280.571411 30.430614,280.885162 
	C24.536694,281.223511 24.050665,280.743011 23.749197,274.705200 
	C23.048946,260.680603 27.436300,248.146942 35.031796,236.618271 
	C42.191769,225.750671 50.038391,215.516800 61.370800,208.465424 
	C62.590267,207.706635 63.188236,205.050507 63.110909,203.317505 
	C62.996037,200.743240 62.020779,198.207367 61.222954,194.864136 
	C98.657524,194.190903 135.259293,190.929703 170.985229,179.362808 
M106.562813,277.989929 
	C108.197212,282.169617 109.721634,286.396698 111.496597,290.515808 
	C113.311996,294.728790 116.364365,297.997986 121.088600,298.284088 
	C125.127769,298.528748 129.336960,298.173798 133.285416,297.271820 
	C142.999359,295.052917 152.625687,292.437866 162.252335,289.852142 
	C179.361877,285.256500 196.457947,280.609375 213.531296,275.881287 
	C217.751144,274.712708 220.617767,271.707855 220.721985,267.350006 
	C220.815811,263.426178 220.248077,259.329651 219.123627,255.562576 
	C215.567673,243.649506 211.672241,231.835876 207.764633,220.031296 
	C206.989548,217.689835 205.809372,215.399780 204.410080,213.365204 
	C201.649292,209.350998 198.098434,207.584473 192.879425,208.850647 
	C172.425156,213.813004 151.872955,218.370529 131.406662,223.284744 
	C120.770851,225.838516 110.208099,228.714798 99.675545,231.670639 
	C95.888931,232.733322 94.430641,235.786606 95.466423,239.516434 
	C98.969109,252.129547 102.647034,264.694000 106.562813,277.989929 
M160.564774,198.082047 
	C132.838364,204.077316 105.173447,210.703033 76.447876,205.250366 
	C75.223747,205.018005 73.700829,206.359741 72.317108,206.968185 
	C73.299614,208.068100 74.138695,209.923645 75.288544,210.141891 
	C81.462669,211.313797 87.783150,213.161072 93.925270,212.769577 
	C109.122795,211.800919 124.302742,210.118134 139.394241,208.031479 
	C159.864151,205.201141 179.662186,199.504715 198.753098,191.648331 
	C203.698105,189.613327 208.016708,185.965607 212.407333,182.762955 
	C213.142273,182.226883 212.771118,180.174408 212.911057,178.822617 
	C211.551498,178.965103 209.984268,178.723633 208.872757,179.324768 
	C205.971130,180.894012 203.482910,183.423798 200.450134,184.520447 
	C187.502731,189.202255 174.417953,193.504181 160.564774,198.082047 
M225.363007,217.794266 
	C225.897324,216.378189 227.310745,214.453308 226.830887,213.624222 
	C221.660950,204.691605 220.552628,195.034531 220.907852,184.987717 
	C220.988373,182.710556 220.467468,180.374924 219.936020,178.134384 
	C219.760574,177.394760 218.702072,176.403778 218.009445,176.372726 
	C217.264648,176.339340 216.128174,177.134857 215.785049,177.862305 
	C215.240906,179.015961 215.051910,180.406494 214.994125,181.709290 
	C214.510941,192.600128 216.547379,203.084351 220.605331,213.140945 
	C221.322861,214.919189 223.276016,216.198868 225.363007,217.794266 
M75.290123,230.390106 
	C74.828957,228.798828 74.508652,227.149307 73.879463,225.627502 
	C72.186287,221.532242 70.520058,217.407745 68.458565,213.497620 
	C68.030815,212.686279 65.899925,212.421814 64.641144,212.583603 
	C64.179382,212.642960 63.321388,215.114029 63.743896,215.727356 
	C69.315674,223.815216 70.272385,233.288757 72.246864,242.489227 
	C72.663071,244.428589 74.241302,246.118546 75.284103,247.923431 
	C75.909599,247.784103 76.535095,247.644775 77.160591,247.505432 
	C77.472031,245.755585 78.245148,243.938187 78.001007,242.269638 
	C77.454338,238.533417 76.401405,234.871292 75.290123,230.390106 
z"/>
<path fill="#8D5937" opacity="1.000000" stroke="none" 
	d="
M130.932922,34.676933 
	C136.801590,34.349609 142.683594,33.616230 148.535217,33.808231 
	C154.484665,34.003441 160.404160,35.110680 166.815765,36.351242 
	C167.380264,38.283382 167.465790,39.682816 167.056274,41.132332 
	C163.356430,41.203392 160.151627,41.224369 156.763535,41.151924 
	C156.580261,41.058510 156.210602,40.879650 156.141602,40.525116 
	C152.513519,36.133488 146.093674,35.050941 142.925278,37.953613 
	C139.853668,40.767612 140.141312,45.500587 143.606995,49.340279 
	C143.610825,49.572617 143.690704,50.030434 143.482422,50.402672 
	C140.498856,59.847500 141.421967,64.614441 147.734802,68.848213 
	C154.596893,73.450371 162.495483,75.595848 170.686401,75.840843 
	C176.667358,76.019745 181.364853,73.132957 184.363678,67.518936 
	C184.939575,67.358604 185.262344,67.246902 185.729980,67.455475 
	C188.100647,69.902191 190.326447,72.028641 192.608276,74.556999 
	C194.389023,77.937798 196.113785,80.916695 197.849976,84.260101 
	C198.925964,86.748314 199.990509,88.872002 200.991974,91.356750 
	C201.072052,92.433975 201.215210,93.150154 200.893097,93.894539 
	C197.160110,93.938889 192.780716,92.679588 190.915726,94.305107 
	C188.751862,96.191109 187.186172,96.144493 184.771378,95.793381 
	C182.683609,96.402977 180.844467,97.210205 178.707230,97.796051 
	C175.907333,96.967178 173.405502,96.359673 170.831696,95.734680 
	C170.573654,96.135033 170.269821,96.510803 170.067474,96.934982 
	C167.687668,101.923759 166.237885,102.024971 162.891022,97.624336 
	C162.291626,96.836227 161.065033,96.525154 159.926270,95.718796 
	C158.870270,94.240952 158.089233,92.977280 157.148987,91.845940 
	C153.280670,87.191483 148.167206,85.900040 142.485489,87.018700 
	C137.739761,87.953072 136.084991,91.705513 135.050110,96.101288 
	C132.792145,97.339691 130.890961,99.417923 128.984283,99.422974 
	C127.193222,99.427711 125.396355,97.242416 124.096474,96.357384 
	C122.705132,97.951775 121.564903,99.739906 119.980476,100.943077 
	C118.284149,102.231216 116.190224,104.370522 114.265091,100.948929 
	C110.427185,94.127716 110.408241,94.138374 103.682999,98.835999 
	C96.731430,94.482300 87.174080,99.000153 86.438675,106.962242 
	C86.113945,110.478127 86.888741,114.095573 87.072029,118.022766 
	C84.155937,121.603447 84.155937,121.603447 80.668930,114.615829 
	C80.123146,114.753716 79.521149,115.049614 78.928131,115.032593 
	C74.670143,114.910355 69.536339,116.169472 66.353310,114.236115 
	C60.946838,110.952232 57.537586,111.296249 55.761475,117.822708 
	C57.510658,119.882019 62.860058,117.782166 61.735874,123.215691 
	C60.791275,123.888321 59.959354,124.847023 59.444412,124.699463 
	C55.606609,123.599777 54.563183,126.004761 52.858315,128.746445 
	C51.446815,131.016342 48.443466,132.296371 45.979156,133.616623 
	C43.737324,113.588654 47.052502,95.199203 58.754295,78.724060 
	C48.888680,76.838692 46.455601,75.037033 42.642059,67.006104 
	C46.097717,63.944302 49.553379,60.882500 53.513367,57.914196 
	C54.017696,58.007694 54.342136,58.320183 54.277897,58.730530 
	C52.940994,63.957504 54.407803,67.561668 58.909252,69.862206 
	C62.141281,71.513992 66.761986,70.026230 69.368828,66.563095 
	C72.085526,62.954021 70.003822,60.597191 67.548447,58.010502 
	C63.887230,54.153488 60.026466,56.022045 55.961632,56.967701 
	C55.697227,56.639416 55.589355,56.509808 55.481480,56.380199 
	C60.311848,53.452839 65.142212,50.525478 70.572929,47.995354 
	C74.694633,53.564678 78.215988,58.736771 82.034882,64.345879 
	C97.444115,56.520901 115.313370,53.603268 134.262253,52.529842 
	C133.576004,50.035828 132.805695,47.905964 132.426804,45.708611 
	C131.796661,42.054176 131.417679,38.356438 130.932922,34.676933 
z"/>
<path fill="#8E5A37" opacity="1.000000" stroke="none" 
	d="
M204.279526,149.874939 
	C203.798141,151.321182 203.316772,152.767410 202.550354,154.827057 
	C200.848587,158.682281 199.431870,161.924103 198.015167,165.165924 
	C188.849167,168.233047 179.683167,171.300171 170.232025,174.572067 
	C157.853836,177.588699 145.880493,181.209198 133.639450,183.021301 
	C115.664833,185.682144 97.499870,187.059982 79.411087,188.937042 
	C78.631737,189.017899 77.803162,188.624252 76.328300,188.171570 
	C73.436913,186.226456 71.214737,184.561447 68.992561,182.896439 
	C67.844353,181.649368 66.696136,180.402313 65.145081,178.740067 
	C62.075657,174.256485 59.409081,170.188095 57.046062,165.952713 
	C59.231266,164.522354 61.112911,163.258972 63.382454,162.071060 
	C69.417244,163.465210 75.260551,164.090546 79.241592,169.384628 
	C80.073006,170.490280 84.245644,170.841705 85.004555,169.948502 
	C88.931480,165.326584 95.220894,166.991272 99.798676,164.038818 
	C102.339378,165.512390 104.497894,167.128799 106.923988,168.000275 
	C119.096016,172.372498 131.117371,169.778198 143.018311,166.668228 
	C156.658432,163.103745 166.013779,154.835220 170.315002,140.925568 
	C172.578735,139.439590 174.759109,136.592606 176.371292,136.884460 
	C181.569519,137.825439 184.819992,135.834732 186.772156,131.577881 
	C188.048813,128.794022 189.599915,128.757614 191.904724,129.658463 
	C192.921448,130.055847 193.980896,130.343918 195.545776,130.852005 
	C195.545776,128.101288 195.545776,125.881882 195.545776,123.603729 
	C200.372498,123.537315 202.165115,121.392006 201.334915,116.771858 
	C203.302948,116.279137 204.932999,116.013954 206.707993,115.800812 
	C206.852921,115.852867 207.136261,115.973511 207.110291,116.443413 
	C207.219864,122.607155 207.355408,128.300995 207.436020,134.369781 
	C207.363419,135.497330 207.345734,136.249954 207.186157,137.386002 
	C206.122665,141.804596 205.201096,145.839767 204.279526,149.874939 
z"/>
<path fill="#6DC0EC" opacity="1.000000" stroke="none" 
	d="
M56.742508,166.119690 
	C59.409081,170.188095 62.075657,174.256485 64.819031,178.655609 
	C61.377514,181.517197 57.859203,184.048035 53.514931,187.173019 
	C47.476986,182.957001 40.549217,175.844086 35.103954,167.185791 
	C26.874466,154.100388 23.105335,139.769882 21.740833,124.461098 
	C20.456724,110.054260 21.839474,96.077751 28.375641,83.301285 
	C31.495758,77.202286 37.390900,72.522934 42.335579,67.103333 
	C46.455601,75.037033 48.888680,76.838692 58.754295,78.724060 
	C47.052502,95.199203 43.737324,113.588654 45.942825,134.024384 
	C47.330898,140.245071 48.589062,145.659698 49.867920,151.451447 
	C51.902466,155.931000 53.916313,160.033447 55.960682,164.409698 
	C56.241638,165.162247 56.492073,165.640976 56.742508,166.119690 
z"/>
<path fill="#FEFEFE" opacity="1.000000" stroke="none" 
	d="
M248.832993,283.224945 
	C243.537598,265.126068 238.633118,247.072983 233.593567,229.057693 
	C232.618484,225.572021 232.846741,223.410400 236.596832,221.466278 
	C244.187805,217.530945 251.406372,212.877243 259.362549,208.174545 
	C262.231812,218.422806 265.298065,228.356415 267.728699,238.443176 
	C269.156769,244.369568 270.300568,250.539703 270.299103,256.599884 
	C270.295715,270.350037 265.005341,276.688660 248.832993,283.224945 
z"/>
<path fill="#FCFCFD" opacity="1.000000" stroke="none" 
	d="
M36.778149,63.596199 
	C36.586987,62.471359 36.273758,60.922020 36.894756,60.006058 
	C53.567261,35.414330 77.799179,22.843645 106.117737,17.116041 
	C126.970924,12.898355 147.422501,14.814789 167.521591,21.831810 
	C174.135315,24.140797 180.705872,26.171947 186.735977,32.791992 
	C181.590790,32.312241 177.612442,32.314037 173.797684,31.524950 
	C149.474365,26.493633 125.281578,27.446129 100.989731,32.037144 
	C78.101547,36.362877 57.522793,45.121384 40.294369,61.092838 
	C39.325645,61.990879 38.163544,62.680325 36.778149,63.596199 
z"/>
<path fill="#FEFEFE" opacity="1.000000" stroke="none" 
	d="
M56.976181,321.600891 
	C51.740952,326.478699 45.730518,328.493011 38.437965,328.013916 
	C26.478943,326.856049 26.968208,326.836731 25.094521,313.611786 
	C23.900364,305.183167 24.871025,296.447815 24.871025,286.595490 
	C32.619106,286.201141 41.608391,285.504242 50.596203,285.522736 
	C52.087994,285.525787 54.329693,288.428162 54.903500,290.379303 
	C56.080647,294.382080 56.590981,298.220764 60.877174,300.674286 
	C63.194485,302.000763 64.095818,305.497620 60.384583,306.848267 
	C56.523251,308.253510 56.638027,310.795715 56.950882,313.947693 
	C57.189301,316.349731 57.014950,318.792694 56.976181,321.600891 
z"/>
<path fill="#6FC2EE" opacity="1.000000" stroke="none" 
	d="
M204.658691,149.901230 
	C205.201096,145.839767 206.122665,141.804596 207.440216,137.285706 
	C207.721130,135.866257 207.606033,134.930557 207.490936,133.994843 
	C207.355408,128.300995 207.219864,122.607155 207.495789,116.437019 
	C211.540619,115.821136 211.190109,113.288040 210.707108,110.969589 
	C210.155167,108.320175 209.271164,105.739937 208.280243,102.243271 
	C213.303894,103.427757 215.271729,101.215805 215.680511,97.117546 
	C214.039215,96.210472 212.625473,95.429161 210.801086,94.420914 
	C212.472229,93.628502 213.458313,93.160927 214.596756,92.621109 
	C210.502594,88.857819 206.588455,87.109032 202.029709,90.900589 
	C201.822083,91.073288 201.385178,90.970291 201.055054,90.995697 
	C199.990509,88.872002 198.925964,86.748314 198.276978,84.257881 
	C201.100800,83.517311 203.509048,83.143471 206.001266,83.064384 
	C206.875870,83.580795 207.687820,83.745956 208.453140,84.034714 
	C210.744232,84.899155 214.460495,85.266045 215.041550,86.802460 
	C217.287567,92.741257 222.144272,93.193031 227.088211,93.968224 
	C227.965210,104.542488 229.014999,115.106689 229.631714,125.696114 
	C229.868851,129.767868 229.119736,133.897064 228.749985,138.449371 
	C226.813812,142.504227 225.005951,146.141693 223.059448,149.703400 
	C221.899734,151.825455 220.522217,153.828476 219.659454,155.215027 
	C214.372345,153.303085 209.705109,151.615311 204.658691,149.901230 
z"/>
<path fill="#6DBFEC" opacity="1.000000" stroke="none" 
	d="
M227.074951,93.548569 
	C222.144272,93.193031 217.287567,92.741257 215.041550,86.802460 
	C214.460495,85.266045 210.744232,84.899155 208.453140,84.034714 
	C207.687820,83.745956 206.875870,83.580795 206.165283,82.757233 
	C208.406052,75.544785 207.199753,72.222145 201.842819,70.028992 
	C197.233673,68.141975 195.047501,69.112885 192.552261,74.155098 
	C190.326447,72.028641 188.100647,69.902191 185.825470,67.000412 
	C186.961777,51.943481 181.810562,44.841446 168.121796,41.809212 
	C167.955231,41.385334 167.789139,41.201405 167.551300,41.082253 
	C167.465790,39.682816 167.380264,38.283382 167.229446,36.463852 
	C176.672165,37.391712 186.184616,38.709904 195.682098,40.128456 
	C196.766647,40.290447 197.964966,40.791363 198.777435,41.511124 
	C214.372101,55.326355 223.906036,72.486061 227.074951,93.548569 
z"/>
<path fill="#6DBFEB" opacity="1.000000" stroke="none" 
	d="
M130.571014,34.503292 
	C131.417679,38.356438 131.796661,42.054176 132.426804,45.708611 
	C132.805695,47.905964 133.576004,50.035828 134.262253,52.529842 
	C115.313370,53.603268 97.444115,56.520901 82.034882,64.345879 
	C78.215988,58.736771 74.694633,53.564678 70.942307,48.105381 
	C78.258926,44.946663 85.616501,41.297081 93.401085,39.395966 
	C103.674324,36.887093 114.274124,35.695560 124.754852,34.075611 
	C126.517738,33.803135 128.388306,34.227345 130.571014,34.503292 
z"/>
<path fill="#D7DBDF" opacity="1.000000" stroke="none" 
	d="
M244.975861,294.695190 
	C243.126617,296.912384 241.593353,299.519257 239.322037,300.672424 
	C227.639374,306.603760 215.706635,311.941162 202.814438,314.881836 
	C180.495987,319.972595 158.261017,325.433380 135.914856,330.396088 
	C129.312210,331.862396 122.463387,332.282318 115.702126,332.909454 
	C114.619385,333.009918 113.403381,331.673584 112.248985,331.001465 
	C113.330719,330.004059 114.282440,328.351562 115.513634,328.107178 
	C135.041870,324.231659 154.677444,320.869415 174.137146,316.685852 
	C187.557800,313.800659 200.925522,310.388824 213.975891,306.160004 
	C222.722549,303.325775 230.870758,298.645782 239.289597,294.797852 
	C240.629776,294.185303 241.984909,293.605530 243.709961,293.015076 
	C244.374985,293.484436 244.663193,293.949402 244.975861,294.695190 
z"/>
<path fill="#FDFDFD" opacity="1.000000" stroke="none" 
	d="
M281.929138,303.970551 
	C292.705231,296.209229 295.284607,296.016815 304.302216,305.150391 
	C308.390472,309.291229 311.136505,314.843018 314.082611,319.988770 
	C315.504272,322.471832 311.457794,326.083374 307.931519,325.711426 
	C307.447693,325.660400 306.937622,325.494202 306.518463,325.247528 
	C298.769714,320.687073 297.282593,324.411804 292.220886,330.634308 
	C286.172516,324.064606 280.248627,317.630127 273.574707,310.380981 
	C276.361023,308.211578 278.981598,306.171204 281.929138,303.970551 
z"/>
<path fill="#7B7C8D" opacity="1.000000" stroke="none" 
	d="
M68.674210,183.002075 
	C71.214737,184.561447 73.436913,186.226456 75.945473,188.119415 
	C72.114952,188.774399 67.998039,189.201416 63.881130,189.628433 
	C63.626465,189.152710 63.371803,188.676987 63.117138,188.201279 
	C64.863380,186.503418 66.609627,184.805573 68.674210,183.002075 
z"/>
<path fill="#8D5937" opacity="1.000000" stroke="none" 
	d="
M53.855621,57.851303 
	C54.108212,57.312744 54.522873,56.930576 55.209511,56.464306 
	C55.589355,56.509808 55.697227,56.639416 55.789555,57.177174 
	C55.296719,57.830280 54.819427,58.075230 54.342136,58.320183 
	C54.342136,58.320183 54.017696,58.007694 53.855621,57.851303 
z"/>
<path fill="#FDFDFE" opacity="1.000000" stroke="none" 
	d="
M302.600891,147.562042 
	C301.149994,150.453201 299.792664,153.048920 298.222107,155.929260 
	C286.578339,151.076675 275.113373,146.012283 263.787598,140.653763 
	C262.949219,140.257095 262.399353,137.387573 262.951141,136.287720 
	C264.263763,133.671539 266.030151,131.124954 268.147369,129.112091 
	C270.592285,126.787682 270.207214,125.242294 268.306000,122.814713 
	C265.517242,119.253922 263.248718,115.285698 260.758514,111.491074 
	C261.033905,111.003593 261.309296,110.516106 261.584686,110.028618 
	C264.623657,110.028618 267.681671,109.815964 270.696411,110.086288 
	C273.942474,110.377357 275.714996,109.184273 277.468933,106.363350 
	C281.520691,99.846764 286.141815,93.684181 290.531982,87.378014 
	C291.207092,87.632774 291.882202,87.887535 292.557312,88.142296 
	C292.756042,89.959953 292.805237,91.810608 293.196930,93.585670 
	C293.564240,95.250175 293.935425,97.854919 294.949646,98.211311 
	C296.410217,98.724556 298.550751,97.804565 300.227631,97.089455 
	C303.169556,95.834885 305.979858,94.271751 308.845306,92.837868 
	C309.220245,93.171906 309.595215,93.505943 309.970154,93.839981 
	C309.724915,95.166298 309.705475,96.589455 309.186951,97.798584 
	C308.140045,100.239944 306.602112,102.485184 305.700287,104.968750 
	C305.179901,106.401871 304.857452,108.962181 305.603394,109.552490 
	C306.722748,110.438278 308.876160,110.260391 310.557831,110.128075 
	C312.456268,109.978691 314.319275,109.379021 317.496246,108.695992 
	C315.885529,111.631004 315.095886,113.588799 313.865173,115.212189 
	C310.574677,119.552528 311.127594,121.026360 316.637238,122.151283 
	C317.709991,122.370300 318.711182,122.939659 320.641541,123.700752 
	C317.890228,125.995613 315.947601,128.715866 313.402283,129.513901 
	C307.809021,131.267563 306.335632,135.522217 304.849304,140.917801 
	C304.267761,142.700562 303.974792,143.857925 303.681824,145.015289 
	C303.352692,145.765732 303.023560,146.516159 302.600891,147.562042 
M282.965942,117.732315 
	C286.957611,119.511726 290.937164,121.319107 294.948212,123.053642 
	C296.166168,123.580322 297.471100,123.905785 298.736206,124.323402 
	C298.807251,122.841133 299.400269,121.120567 298.852539,119.920776 
	C297.132690,116.153381 287.759827,111.475838 283.566376,112.153633 
	C282.430542,112.337227 280.613159,113.275993 280.552399,113.990913 
	C280.457825,115.103371 281.598602,116.320877 282.965942,117.732315 
z"/>
<path fill="#FCFCFC" opacity="1.000000" stroke="none" 
	d="
M222.713043,159.828979 
	C224.649139,156.929459 226.468750,154.366425 227.957047,151.623611 
	C230.342316,147.227722 233.193039,146.250549 237.019608,149.652969 
	C239.860153,152.178650 241.851578,155.659302 245.373093,160.199722 
	C237.205032,161.949356 230.605927,163.819931 223.879379,164.622955 
	C220.169922,165.065781 220.629898,162.365585 222.713043,159.828979 
z"/>
<path fill="#7C7D8E" opacity="1.000000" stroke="none" 
	d="
M198.428146,165.159363 
	C199.431870,161.924103 200.848587,158.682281 202.501144,155.206284 
	C206.218033,155.988159 209.699081,157.004227 213.180130,158.020294 
	C213.185226,158.694885 213.190338,159.369476 213.195435,160.044052 
	C208.724380,162.479156 204.144714,164.660782 198.428146,165.159363 
z"/>
<path fill="#AFB8C1" opacity="1.000000" stroke="none" 
	d="
M304.020172,144.930939 
	C303.974792,143.857925 304.267761,142.700562 304.819763,141.291565 
	C304.838745,142.308838 304.598633,143.577728 304.020172,144.930939 
z"/>
<path fill="#B0BAC2" opacity="1.000000" stroke="none" 
	d="
M106.410400,277.633484 
	C102.647034,264.694000 98.969109,252.129547 95.466423,239.516434 
	C94.430641,235.786606 95.888931,232.733322 99.675545,231.670639 
	C110.208099,228.714798 120.770851,225.838516 131.406662,223.284744 
	C151.872955,218.370529 172.425156,213.813004 192.879425,208.850647 
	C198.098434,207.584473 201.649292,209.350998 204.410080,213.365204 
	C205.809372,215.399780 206.989548,217.689835 207.764633,220.031296 
	C211.672241,231.835876 215.567673,243.649506 219.123627,255.562576 
	C220.248077,259.329651 220.815811,263.426178 220.721985,267.350006 
	C220.617767,271.707855 217.751144,274.712708 213.531296,275.881287 
	C196.457947,280.609375 179.361877,285.256500 162.252335,289.852142 
	C152.625687,292.437866 142.999359,295.052917 133.285416,297.271820 
	C129.336960,298.173798 125.127769,298.528748 121.088600,298.284088 
	C116.364365,297.997986 113.311996,294.728790 111.496597,290.515808 
	C109.721634,286.396698 108.197212,282.169617 106.410400,277.633484 
M163.005768,283.000000 
	C163.005768,283.000000 162.976013,283.029510 163.811508,283.159485 
	C175.903275,280.465271 187.995026,277.771057 200.755402,275.094482 
	C201.830475,274.590759 202.905563,274.087067 204.749359,273.376373 
	C216.114471,269.564453 216.427353,269.495087 213.866791,257.947083 
	C212.079163,249.884964 209.427338,242.000641 206.897034,234.121841 
	C205.176224,228.763611 203.393433,223.348373 200.829742,218.375519 
	C199.801956,216.381958 196.287018,213.975250 194.447205,214.359146 
	C176.936844,218.012878 159.543228,222.226151 141.366684,226.442154 
	C134.095932,228.086945 126.806496,229.654343 119.560852,231.403168 
	C114.562119,232.609665 109.620338,234.053970 104.660233,235.417923 
	C102.076675,236.128342 100.846718,237.478470 101.401550,240.499146 
	C104.415680,256.908905 109.658684,272.607819 116.280151,287.866547 
	C117.746788,291.246338 120.193329,293.956573 124.385246,292.951233 
	C136.418900,290.065186 148.406631,286.987640 160.497498,284.022980 
	C160.497498,284.022980 160.587402,284.046844 161.300217,284.005981 
	C161.879959,283.662354 162.459686,283.318726 163.005768,283.000000 
z"/>
<path fill="#D7DBDF" opacity="1.000000" stroke="none" 
	d="
M160.974030,198.013367 
	C174.417953,193.504181 187.502731,189.202255 200.450134,184.520447 
	C203.482910,183.423798 205.971130,180.894012 208.872757,179.324768 
	C209.984268,178.723633 211.551498,178.965103 212.911057,178.822617 
	C212.771118,180.174408 213.142273,182.226883 212.407333,182.762955 
	C208.016708,185.965607 203.698105,189.613327 198.753098,191.648331 
	C179.662186,199.504715 159.864151,205.201141 139.394241,208.031479 
	C124.302742,210.118134 109.122795,211.800919 93.925270,212.769577 
	C87.783150,213.161072 81.462669,211.313797 75.288544,210.141891 
	C74.138695,209.923645 73.299614,208.068100 72.317108,206.968201 
	C73.700829,206.359741 75.223747,205.018005 76.447876,205.250366 
	C105.173447,210.703033 132.838364,204.077316 160.974030,198.013367 
z"/>
<path fill="#D6DADF" opacity="1.000000" stroke="none" 
	d="
M225.010803,217.751526 
	C223.276016,216.198868 221.322861,214.919189 220.605331,213.140945 
	C216.547379,203.084351 214.510941,192.600128 214.994125,181.709290 
	C215.051910,180.406494 215.240906,179.015961 215.785049,177.862305 
	C216.128174,177.134857 217.264648,176.339340 218.009445,176.372726 
	C218.702072,176.403778 219.760574,177.394760 219.936020,178.134384 
	C220.467468,180.374924 220.988373,182.710556 220.907852,184.987717 
	C220.552628,195.034531 221.660950,204.691605 226.830887,213.624222 
	C227.310745,214.453308 225.897324,216.378189 225.010803,217.751526 
z"/>
<path fill="#D7DBE0" opacity="1.000000" stroke="none" 
	d="
M75.422386,230.784546 
	C76.401405,234.871292 77.454338,238.533417 78.001007,242.269638 
	C78.245148,243.938187 77.472031,245.755585 77.160591,247.505432 
	C76.535095,247.644775 75.909599,247.784103 75.284103,247.923431 
	C74.241302,246.118546 72.663071,244.428589 72.246864,242.489227 
	C70.272385,233.288757 69.315674,223.815216 63.743896,215.727356 
	C63.321388,215.114029 64.179382,212.642960 64.641144,212.583603 
	C65.899925,212.421814 68.030815,212.686279 68.458565,213.497620 
	C70.520058,217.407745 72.186287,221.532242 73.879463,225.627502 
	C74.508652,227.149307 74.828957,228.798828 75.422386,230.784546 
z"/>
<path fill="#894E32" opacity="1.000000" stroke="none" 
	d="
M49.847225,151.074310 
	C48.589062,145.659698 47.330898,140.245071 46.109066,134.422699 
	C48.443466,132.296371 51.446815,131.016342 52.858315,128.746445 
	C54.563183,126.004761 55.606609,123.599777 59.444412,124.699463 
	C59.959354,124.847023 60.791275,123.888321 62.143829,123.192215 
	C74.704971,120.156471 85.088379,122.293663 92.928223,132.549896 
	C88.015411,138.593109 89.822403,144.989197 90.458755,151.270752 
	C89.402328,151.399811 88.434662,151.362152 88.189034,151.764877 
	C85.294861,156.509903 80.341133,156.018997 75.880997,157.441238 
	C71.098625,158.966202 67.706856,156.641724 63.798656,155.844559 
	C61.241447,155.322968 59.017521,153.340164 56.494434,152.425125 
	C54.391930,151.662628 52.071266,151.501694 49.847225,151.074310 
M70.985062,150.519623 
	C71.500999,150.134155 72.098900,149.343216 72.519737,149.428299 
	C75.506119,150.031921 77.532425,149.727859 78.359497,146.083359 
	C78.904251,143.682892 80.596375,141.542801 82.234329,138.405930 
	C82.078636,138.419907 83.309753,138.309372 84.540878,138.198822 
	C84.831985,137.791901 85.123100,137.384979 85.414215,136.978043 
	C84.146423,135.837799 82.960350,134.583832 81.584000,133.594635 
	C80.553101,132.853714 78.791161,132.769104 78.193497,131.848007 
	C75.437164,127.599945 71.005966,128.652115 67.370789,128.755951 
	C63.298969,128.872253 60.357609,130.879242 58.805332,135.803116 
	C55.835182,145.224518 60.667690,152.181580 70.985062,150.519623 
z"/>
<path fill="#C5AB99" opacity="1.000000" stroke="none" 
	d="
M167.056274,41.132332 
	C167.789139,41.201405 167.955231,41.385334 167.941345,42.172333 
	C167.157288,46.430416 166.597504,50.176353 165.767120,53.861317 
	C165.157669,56.565933 166.311920,57.279785 168.671295,58.433239 
	C174.026352,61.051235 178.988617,64.472725 184.110565,67.567566 
	C181.364853,73.132957 176.667358,76.019745 170.686401,75.840843 
	C162.495483,75.595848 154.596893,73.450371 147.734802,68.848213 
	C141.421967,64.614441 140.498856,59.847500 143.791168,50.582863 
	C154.192368,52.408966 157.151077,50.268009 156.946808,41.245342 
	C160.151627,41.224369 163.356430,41.203392 167.056274,41.132332 
z"/>
<path fill="#895634" opacity="1.000000" stroke="none" 
	d="
M93.079796,132.228104 
	C85.088379,122.293663 74.704971,120.156471 62.403290,122.966003 
	C62.860058,117.782166 57.510658,119.882019 55.761475,117.822708 
	C57.537586,111.296249 60.946838,110.952232 66.353310,114.236115 
	C69.536339,116.169472 74.670143,114.910355 78.928131,115.032593 
	C79.521149,115.049614 80.123146,114.753716 80.668930,114.615829 
	C84.155937,121.603447 84.155937,121.603447 87.368958,118.217918 
	C92.234573,119.129356 93.615120,118.060104 93.288445,113.803528 
	C93.161285,112.146698 92.505882,110.214584 93.123833,108.889458 
	C94.082520,106.833626 95.925423,105.190140 97.393463,103.371841 
	C98.648064,104.479942 100.032379,105.476143 101.115753,106.731956 
	C101.964584,107.715897 102.178322,109.368813 103.146088,110.099762 
	C104.487328,111.112785 106.270874,111.540199 107.865051,112.218361 
	C108.213875,110.682892 109.260033,108.864861 108.774803,107.667343 
	C107.544426,104.630859 105.627304,101.872650 103.985191,99.002998 
	C110.408241,94.138374 110.427185,94.127716 114.265091,100.948929 
	C116.190224,104.370522 118.284149,102.231216 119.980476,100.943077 
	C121.564903,99.739906 122.705132,97.951775 124.096474,96.357384 
	C125.396355,97.242416 127.193222,99.427711 128.984283,99.422974 
	C130.890961,99.417923 132.792145,97.339691 135.033813,96.491241 
	C135.298965,97.853531 135.226044,98.891235 134.840027,100.106735 
	C131.388016,101.350204 128.061234,102.065964 125.180489,103.612526 
	C123.446297,104.543549 121.994026,106.590126 121.184204,108.467224 
	C120.526436,109.991882 121.013916,112.010635 120.630333,113.942650 
	C108.845001,116.591972 99.799423,122.668282 93.079796,132.228104 
z"/>
<path fill="#87452F" opacity="1.000000" stroke="none" 
	d="
M179.005310,98.017426 
	C180.844467,97.210205 182.683609,96.402977 184.534943,96.038162 
	C183.009766,98.541306 181.472397,100.602051 179.230499,103.607155 
	C186.712906,102.019279 188.165207,103.050179 190.542862,108.897827 
	C191.290573,110.736732 193.291321,112.047775 194.636002,113.668892 
	C195.503937,114.715233 196.221680,115.886139 197.002838,117.244217 
	C196.998962,117.487221 196.995331,117.973289 196.802124,118.118515 
	C196.363861,118.477036 196.155487,118.721596 195.621826,119.018806 
	C193.886627,120.105789 192.479294,121.130806 191.149597,122.248199 
	C189.781128,123.398186 188.659760,125.340172 187.131790,125.713249 
	C181.535736,127.079597 175.815384,127.936974 169.999512,128.677231 
	C169.228424,126.938301 168.599701,125.508141 168.152649,123.793900 
	C169.188766,122.413918 170.043228,121.318031 170.897675,120.222145 
	C170.296555,120.209908 169.695435,120.197670 169.094299,120.185432 
	C168.324493,116.979988 165.923935,112.770538 167.143402,110.789810 
	C169.308197,107.273621 169.190170,101.163490 175.547333,100.827744 
	C176.746124,100.764427 177.854965,98.997986 179.005310,98.017426 
z"/>
<path fill="#8A5133" opacity="1.000000" stroke="none" 
	d="
M197.006714,117.001221 
	C196.221680,115.886139 195.503937,114.715233 194.636002,113.668892 
	C193.291321,112.047775 191.290573,110.736732 190.542862,108.897827 
	C188.165207,103.050179 186.712906,102.019279 179.230499,103.607155 
	C181.472397,100.602051 183.009766,98.541306 184.783569,96.235779 
	C187.186172,96.144493 188.751862,96.191109 190.915726,94.305107 
	C192.780716,92.679588 197.160110,93.938889 201.155869,94.138374 
	C203.443634,101.485588 205.003342,108.617172 206.563065,115.748764 
	C204.932999,116.013954 203.302948,116.279137 200.935867,116.772011 
	C199.134811,117.000198 198.070755,117.000710 197.006714,117.001221 
z"/>
<path fill="#B4DFF5" opacity="1.000000" stroke="none" 
	d="
M184.363678,67.518936 
	C178.988617,64.472725 174.026352,61.051235 168.671295,58.433239 
	C166.311920,57.279785 165.157669,56.565933 165.767120,53.861317 
	C166.597504,50.176353 167.157288,46.430416 168.013550,42.347507 
	C181.810562,44.841446 186.961777,51.943481 185.680618,66.680145 
	C185.262344,67.246902 184.939575,67.358604 184.363678,67.518936 
z"/>
<path fill="#082225" opacity="1.000000" stroke="none" 
	d="
M135.153107,99.928940 
	C135.226044,98.891235 135.298965,97.853531 135.388199,96.425880 
	C136.084991,91.705513 137.739761,87.953072 142.485489,87.018700 
	C148.167206,85.900040 153.280670,87.191483 157.148987,91.845940 
	C158.089233,92.977280 158.870270,94.240952 159.941528,96.088890 
	C161.165878,99.908539 164.095718,103.332527 158.660095,105.530426 
	C156.534836,102.690407 155.145248,99.587593 152.835266,97.506348 
	C150.615707,95.506554 147.442947,94.564728 144.689026,93.158012 
	C143.808594,95.197693 142.958878,97.251350 142.038803,99.272995 
	C141.174774,101.171547 140.601929,104.281097 139.259995,104.675156 
	C135.680481,105.726280 136.131714,101.937981 135.153107,99.928940 
z"/>
<path fill="#092225" opacity="1.000000" stroke="none" 
	d="
M103.682999,98.835999 
	C105.627304,101.872650 107.544426,104.630859 108.774803,107.667343 
	C109.260033,108.864861 108.213875,110.682892 107.865051,112.218361 
	C106.270874,111.540199 104.487328,111.112785 103.146088,110.099762 
	C102.178322,109.368813 101.964584,107.715897 101.115753,106.731956 
	C100.032379,105.476143 98.648064,104.479942 97.393463,103.371841 
	C95.925423,105.190140 94.082520,106.833626 93.123833,108.889458 
	C92.505882,110.214584 93.161285,112.146698 93.288445,113.803528 
	C93.615120,118.060104 92.234573,119.129356 87.461296,117.862061 
	C86.888741,114.095573 86.113945,110.478127 86.438675,106.962242 
	C87.174080,99.000153 96.731430,94.482300 103.682999,98.835999 
z"/>
<path fill="#8A5033" opacity="1.000000" stroke="none" 
	d="
M158.993332,105.714325 
	C164.095718,103.332527 161.165878,99.908539 160.143280,96.363907 
	C161.065033,96.525154 162.291626,96.836227 162.891022,97.624336 
	C166.237885,102.024971 167.687668,101.923759 170.067474,96.934982 
	C170.269821,96.510803 170.573654,96.135033 170.831696,95.734680 
	C173.405502,96.359673 175.907333,96.967178 178.707230,97.796051 
	C177.854965,98.997986 176.746124,100.764427 175.547333,100.827744 
	C169.190170,101.163490 169.308197,107.273621 167.143402,110.789810 
	C165.923935,112.770538 168.324493,116.979988 169.094299,120.185432 
	C169.695435,120.197670 170.296555,120.209908 170.897675,120.222145 
	C170.043228,121.318031 169.188766,122.413918 167.901245,123.567894 
	C165.230011,121.776001 163.098465,119.773239 160.725037,118.117142 
	C158.126511,116.303978 155.304550,114.811005 152.947540,113.151573 
	C159.194290,113.259018 159.797592,112.471687 158.993332,105.714325 
z"/>
<path fill="#6DBFEC" opacity="1.000000" stroke="none" 
	d="
M206.707993,115.800812 
	C205.003342,108.617172 203.443634,101.485588 201.621140,94.110161 
	C201.215210,93.150154 201.072052,92.433975 200.991974,91.356750 
	C201.385178,90.970291 201.822083,91.073288 202.029709,90.900589 
	C206.588455,87.109032 210.502594,88.857819 214.596756,92.621109 
	C213.458313,93.160927 212.472229,93.628502 210.801086,94.420914 
	C212.625473,95.429161 214.039215,96.210472 215.680511,97.117546 
	C215.271729,101.215805 213.303894,103.427757 208.280243,102.243271 
	C209.271164,105.739937 210.155167,108.320175 210.707108,110.969589 
	C211.190109,113.288040 211.540619,115.821136 207.521759,115.967117 
	C207.136261,115.973511 206.852921,115.852867 206.707993,115.800812 
z"/>
<path fill="#DF7D6C" opacity="1.000000" stroke="none" 
	d="
M54.277897,58.730530 
	C54.819427,58.075230 55.296719,57.830280 55.946091,57.375854 
	C60.026466,56.022045 63.887230,54.153488 67.548447,58.010502 
	C70.003822,60.597191 72.085526,62.954021 69.368828,66.563095 
	C66.761986,70.026230 62.141281,71.513992 58.909252,69.862206 
	C54.407803,67.561668 52.940994,63.957504 54.277897,58.730530 
z"/>
<path fill="#B6DCF0" opacity="1.000000" stroke="none" 
	d="
M192.608276,74.556999 
	C195.047501,69.112885 197.233673,68.141975 201.842819,70.028992 
	C207.199753,72.222145 208.406052,75.544785 206.081314,82.462479 
	C203.509048,83.143471 201.100800,83.517311 198.265549,83.893372 
	C196.113785,80.916695 194.389023,77.937798 192.608276,74.556999 
z"/>
<path fill="#DF7E6D" opacity="1.000000" stroke="none" 
	d="
M143.603149,49.107941 
	C140.141312,45.500587 139.853668,40.767612 142.925278,37.953613 
	C146.093674,35.050941 152.513519,36.133488 155.756470,40.590706 
	C151.494583,43.709866 147.548859,46.408901 143.603149,49.107941 
z"/>
<path fill="#F0C0B8" opacity="1.000000" stroke="none" 
	d="
M143.606995,49.340279 
	C147.548859,46.408901 151.494583,43.709866 155.825455,40.945240 
	C156.210602,40.879650 156.580261,41.058510 156.763535,41.151924 
	C157.151077,50.268009 154.192368,52.408966 143.999451,50.210625 
	C143.690704,50.030434 143.610825,49.572617 143.606995,49.340279 
z"/>
<path fill="#ECD0AB" opacity="1.000000" stroke="none" 
	d="
M152.579971,113.178490 
	C155.304550,114.811005 158.126511,116.303978 160.725037,118.117142 
	C163.098465,119.773239 165.230011,121.776001 167.719559,123.851990 
	C168.599701,125.508141 169.228424,126.938301 169.906082,129.132828 
	C169.960495,133.598663 169.966003,137.300125 169.971497,141.001587 
	C166.013779,154.835220 156.658432,163.103745 143.018311,166.668228 
	C131.117371,169.778198 119.096016,172.372498 106.923988,168.000275 
	C104.497894,167.128799 102.339378,165.512390 99.673622,163.701874 
	C96.886429,160.117096 94.483101,157.069946 92.105293,153.662628 
	C91.703812,152.748489 91.276802,152.194519 90.891998,151.592590 
	C90.934204,151.544632 90.882942,151.308609 90.882942,151.308609 
	C89.822403,144.989197 88.015411,138.593109 92.928223,132.549896 
	C99.799423,122.668282 108.845001,116.591972 121.015274,113.896744 
	C131.680801,111.929565 141.579712,109.079803 151.601532,113.219383 
	C151.875336,113.332466 152.251526,113.197685 152.579971,113.178490 
M139.265610,126.554710 
	C139.836487,124.252998 141.592712,121.044258 140.692703,119.868080 
	C139.430405,118.218483 136.226364,117.937469 133.784958,117.356560 
	C132.553146,117.063461 131.106659,117.158249 129.869843,117.493271 
	C125.528893,118.669098 120.930923,119.439972 117.016220,121.485466 
	C113.433502,123.357506 113.484665,128.425232 116.344490,130.412231 
	C122.085899,134.401352 134.334274,132.666504 139.265610,126.554710 
M134.098419,158.529739 
	C140.475922,157.234848 146.229721,154.857788 149.099045,148.503113 
	C149.685242,147.204849 148.894318,145.284775 148.738190,143.651337 
	C147.487183,144.485519 145.745453,145.033203 145.064178,146.200043 
	C140.351654,154.271271 129.226807,156.203384 122.489304,149.724075 
	C120.940514,148.234650 119.603287,146.225159 117.943649,148.377045 
	C117.270584,149.249756 118.409508,152.992645 119.622047,153.582108 
	C123.973328,155.697495 128.708435,157.023361 134.098419,158.529739 
z"/>
<path fill="#8C5736" opacity="1.000000" stroke="none" 
	d="
M90.458755,151.270752 
	C90.882942,151.308609 90.934204,151.544632 90.986794,151.925888 
	C91.386177,152.879028 91.732971,153.450912 92.079765,154.022797 
	C94.483101,157.069946 96.886429,160.117096 99.414825,163.501190 
	C95.220894,166.991272 88.931480,165.326584 85.004555,169.948502 
	C84.245644,170.841705 80.073006,170.490280 79.241592,169.384628 
	C75.260551,164.090546 69.417244,163.465210 63.534973,161.808685 
	C63.660210,160.560898 64.020821,159.650955 64.381432,158.741028 
	C64.069664,158.495590 63.757900,158.250137 63.446129,158.004700 
	C60.940804,160.048431 58.435482,162.092148 55.930161,164.135880 
	C53.916313,160.033447 51.902466,155.931000 49.867920,151.451447 
	C52.071266,151.501694 54.391930,151.662628 56.494434,152.425125 
	C59.017521,153.340164 61.241447,155.322968 63.798656,155.844559 
	C67.706856,156.641724 71.098625,158.966202 75.880997,157.441238 
	C80.341133,156.018997 85.294861,156.509903 88.189034,151.764877 
	C88.434662,151.362152 89.402328,151.399811 90.458755,151.270752 
M87.016479,161.433701 
	C87.761200,162.367477 88.505920,163.301270 89.250626,164.235046 
	C90.110626,163.150314 91.625038,162.078705 91.647110,160.977173 
	C91.669312,159.869308 90.206657,158.731659 89.394676,157.607071 
	C88.606941,158.634491 87.819206,159.661896 87.016479,161.433701 
z"/>
<path fill="#8B5234" opacity="1.000000" stroke="none" 
	d="
M170.315002,140.925568 
	C169.966003,137.300125 169.960495,133.598663 170.048431,129.441605 
	C175.815384,127.936974 181.535736,127.079597 187.131790,125.713249 
	C188.659760,125.340172 189.781128,123.398186 191.149597,122.248199 
	C192.479294,121.130806 193.886627,120.105789 195.874542,119.021500 
	C196.657608,119.003983 196.825974,119.005157 197.051193,119.234512 
	C197.405350,119.738319 197.702637,120.013947 197.999939,120.289566 
	C198.095001,120.183456 198.190063,120.077354 198.285141,119.971252 
	C197.858917,119.645584 197.432709,119.319908 197.004623,118.738991 
	C197.000275,118.313591 196.997803,118.143440 196.995331,117.973289 
	C196.995331,117.973289 196.998962,117.487221 197.002838,117.244217 
	C198.070755,117.000710 199.134811,117.000198 200.597900,116.999542 
	C202.165115,121.392006 200.372498,123.537315 195.545776,123.603729 
	C195.545776,125.881882 195.545776,128.101288 195.545776,130.852005 
	C193.980896,130.343918 192.921448,130.055847 191.904724,129.658463 
	C189.599915,128.757614 188.048813,128.794022 186.772156,131.577881 
	C184.819992,135.834732 181.569519,137.825439 176.371292,136.884460 
	C174.759109,136.592606 172.578735,139.439590 170.315002,140.925568 
z"/>
<path fill="#865232" opacity="1.000000" stroke="none" 
	d="
M55.960678,164.409698 
	C58.435482,162.092148 60.940804,160.048431 63.446129,158.004700 
	C63.757900,158.250137 64.069664,158.495590 64.381432,158.741028 
	C64.020821,159.650955 63.660210,160.560898 63.147076,161.733215 
	C61.112911,163.258972 59.231266,164.522354 57.046066,165.952713 
	C56.492073,165.640976 56.241638,165.162247 55.960678,164.409698 
z"/>
<path fill="#6DBFEC" opacity="1.000000" stroke="none" 
	d="
M207.436020,134.369781 
	C207.606033,134.930557 207.721130,135.866257 207.582138,136.902283 
	C207.345734,136.249954 207.363419,135.497330 207.436020,134.369781 
z"/>
<path fill="#D8DCE0" opacity="1.000000" stroke="none" 
	d="
M282.590881,117.613083 
	C281.598602,116.320877 280.457825,115.103371 280.552399,113.990913 
	C280.613159,113.275993 282.430542,112.337227 283.566376,112.153633 
	C287.759827,111.475838 297.132690,116.153381 298.852539,119.920776 
	C299.400269,121.120567 298.807251,122.841133 298.736206,124.323402 
	C297.471100,123.905785 296.166168,123.580322 294.948212,123.053642 
	C290.937164,121.319107 286.957611,119.511726 282.590881,117.613083 
z"/>
<path fill="#FEFEFE" opacity="1.000000" stroke="none" 
	d="
M142.116058,226.278595 
	C159.543228,222.226151 176.936844,218.012878 194.447205,214.359146 
	C196.287018,213.975250 199.801956,216.381958 200.829742,218.375519 
	C203.393433,223.348373 205.176224,228.763611 206.897034,234.121841 
	C209.427338,242.000641 212.079163,249.884964 213.866791,257.947083 
	C216.427353,269.495087 216.114471,269.564453 204.372910,273.027344 
	C203.974197,272.013977 204.079025,271.315521 203.911133,270.690308 
	C199.563721,254.502075 195.243698,238.305817 190.718430,222.167160 
	C190.327972,220.774612 188.546997,219.771957 187.411957,218.588181 
	C186.732559,220.254715 185.161041,222.141220 185.509445,223.554352 
	C189.783340,240.889343 192.212646,258.762451 200.086792,275.076843 
	C187.995026,277.771057 175.903275,280.465271 163.431610,282.658997 
	C162.663086,279.396667 162.694946,276.492218 161.814987,273.896942 
	C157.370667,260.789276 152.763046,247.735123 148.026123,234.730179 
	C147.113647,232.224991 145.367981,230.023285 143.820068,227.535034 
	C143.127640,227.018509 142.621857,226.648544 142.116058,226.278595 
z"/>
<path fill="#FCFCFD" opacity="1.000000" stroke="none" 
	d="
M141.741364,226.360382 
	C142.621857,226.648544 143.127640,227.018509 143.473633,227.641144 
	C142.958038,229.866379 141.835770,232.078598 142.365921,233.774185 
	C147.273911,249.471039 152.430161,265.091064 157.645981,280.689362 
	C158.069138,281.954865 159.467316,282.894379 160.412415,283.985352 
	C148.406631,286.987640 136.418900,290.065186 124.385246,292.951233 
	C120.193329,293.956573 117.746788,291.246338 116.280151,287.866547 
	C109.658684,272.607819 104.415680,256.908905 101.401550,240.499146 
	C100.846718,237.478470 102.076675,236.128342 104.660233,235.417923 
	C109.620338,234.053970 114.562119,232.609665 119.560852,231.403168 
	C126.806496,229.654343 134.095932,228.086945 141.741364,226.360382 
M112.328491,244.776627 
	C111.530167,245.811859 110.483543,246.761459 110.079643,247.932693 
	C109.952858,248.300354 111.705696,249.979340 112.341240,249.844742 
	C119.123222,248.408493 125.890488,246.857742 132.553040,244.957199 
	C133.424103,244.708725 133.684616,242.319946 134.227921,240.922501 
	C133.082932,240.542648 131.808319,239.629135 130.814224,239.870575 
	C124.885941,241.310562 119.022415,243.017120 112.328491,244.776627 
M127.583328,279.865784 
	C126.254372,281.389343 124.925415,282.912903 123.596458,284.436462 
	C125.512756,284.651825 127.464828,285.203033 129.336945,285.003601 
	C132.123535,284.706757 134.890793,284.009094 137.595016,283.233521 
	C139.453842,282.700409 141.337997,281.958984 142.913635,280.877655 
	C143.565445,280.430328 143.888184,278.656586 143.535309,277.844849 
	C143.220398,277.120361 141.658768,276.360199 140.837219,276.530731 
	C136.637207,277.402527 132.498703,278.570770 127.583328,279.865784 
M138.483658,267.878754 
	C137.750320,266.617065 136.718643,264.173462 136.328644,264.271912 
	C130.925980,265.635681 125.575233,267.245819 120.318916,269.099487 
	C119.627373,269.343353 119.123718,271.341614 119.311569,272.387482 
	C119.419762,272.989868 121.265686,273.895020 122.030052,273.665741 
	C127.372955,272.063293 132.637650,270.200012 138.483658,267.878754 
M134.803940,256.491852 
	C137.127228,252.899246 134.983170,251.886017 131.950211,252.141876 
	C128.658035,252.419601 125.342972,253.062317 122.178398,254.013412 
	C119.683937,254.763092 117.402626,256.221985 115.026642,257.365845 
	C115.085846,257.983612 115.145058,258.601349 115.204269,259.219086 
	C116.725845,259.669281 118.362892,260.724640 119.748123,260.460327 
	C124.598595,259.534760 129.362228,258.154144 134.803940,256.491852 
z"/>
<path fill="#D7DBDF" opacity="1.000000" stroke="none" 
	d="
M200.421097,275.085663 
	C192.212646,258.762451 189.783340,240.889343 185.509445,223.554352 
	C185.161041,222.141220 186.732559,220.254715 187.411957,218.588181 
	C188.546997,219.771957 190.327972,220.774612 190.718430,222.167160 
	C195.243698,238.305817 199.563721,254.502075 203.911133,270.690308 
	C204.079025,271.315521 203.974197,272.013977 203.988556,273.130798 
	C202.905563,274.087067 201.830475,274.590759 200.421097,275.085663 
z"/>
<path fill="#B1BAC2" opacity="1.000000" stroke="none" 
	d="
M160.454956,284.004150 
	C159.467316,282.894379 158.069138,281.954865 157.645981,280.689362 
	C152.430161,265.091064 147.273911,249.471039 142.365921,233.774185 
	C141.835770,232.078598 142.958038,229.866379 143.660248,227.787689 
	C145.367981,230.023285 147.113647,232.224991 148.026123,234.730179 
	C152.763046,247.735123 157.370667,260.789276 161.814987,273.896942 
	C162.694946,276.492218 162.663086,279.396667 163.013855,282.594025 
	C162.976013,283.029510 163.005768,283.000000 162.691727,283.054138 
	C161.780930,283.421143 161.184174,283.734009 160.587402,284.046844 
	C160.587402,284.046844 160.497498,284.022980 160.454956,284.004150 
z"/>
<path fill="#FEFEFE" opacity="1.000000" stroke="none" 
	d="
M160.943817,284.026428 
	C161.184174,283.734009 161.780930,283.421143 162.708557,283.041687 
	C162.459686,283.318726 161.879959,283.662354 160.943817,284.026428 
z"/>
<path fill="#85422D" opacity="1.000000" stroke="none" 
	d="
M70.766510,150.796753 
	C60.667690,152.181580 55.835182,145.224518 58.805332,135.803116 
	C60.357609,130.879242 63.298969,128.872253 67.370789,128.755951 
	C71.005966,128.652115 75.437164,127.599945 78.193497,131.848007 
	C78.791161,132.769104 80.553101,132.853714 81.584000,133.594635 
	C82.960350,134.583832 84.146423,135.837799 85.414215,136.978043 
	C85.123100,137.384979 84.831985,137.791901 84.540878,138.198822 
	C83.309753,138.309372 82.078636,138.419907 82.234329,138.405930 
	C80.596375,141.542801 78.904251,143.682892 78.359497,146.083359 
	C77.532425,149.727859 75.506119,150.031921 72.519737,149.428299 
	C72.098900,149.343216 71.500999,150.134155 70.766510,150.796753 
z"/>
<path fill="#8B5937" opacity="1.000000" stroke="none" 
	d="
M152.947540,113.151573 
	C152.251526,113.197685 151.875336,113.332466 151.601532,113.219383 
	C141.579712,109.079803 131.680801,111.929565 121.378433,113.764359 
	C121.013916,112.010635 120.526436,109.991882 121.184204,108.467224 
	C121.994026,106.590126 123.446297,104.543549 125.180489,103.612526 
	C128.061234,102.065964 131.388016,101.350204 134.840027,100.106735 
	C136.131714,101.937981 135.680481,105.726280 139.259995,104.675156 
	C140.601929,104.281097 141.174774,101.171547 142.038803,99.272995 
	C142.958878,97.251350 143.808594,95.197693 144.689026,93.158012 
	C147.442947,94.564728 150.615707,95.506554 152.835266,97.506348 
	C155.145248,99.587593 156.534836,102.690407 158.660095,105.530426 
	C159.797592,112.471687 159.194290,113.259018 152.947540,113.151573 
z"/>
<path fill="#8E5A37" opacity="1.000000" stroke="none" 
	d="
M196.802124,118.118515 
	C196.997803,118.143440 197.000275,118.313591 197.001373,118.741867 
	C197.000000,119.000000 196.994324,119.006340 196.994324,119.006340 
	C196.825974,119.005157 196.657608,119.003983 196.236526,119.000107 
	C196.155487,118.721596 196.363861,118.477036 196.802124,118.118515 
z"/>
<path fill="#5A3906" opacity="1.000000" stroke="none" 
	d="
M139.073059,126.887474 
	C134.334274,132.666504 122.085899,134.401352 116.344490,130.412231 
	C113.484665,128.425232 113.433502,123.357506 117.016220,121.485466 
	C120.930923,119.439972 125.528893,118.669098 129.869843,117.493271 
	C131.106659,117.158249 132.553146,117.063461 133.784958,117.356560 
	C136.226364,117.937469 139.430405,118.218483 140.692703,119.868080 
	C141.592712,121.044258 139.836487,124.252998 139.073059,126.887474 
z"/>
<path fill="#BD2D4D" opacity="1.000000" stroke="none" 
	d="
M133.698441,158.588715 
	C128.708435,157.023361 123.973328,155.697495 119.622047,153.582108 
	C118.409508,152.992645 117.270584,149.249756 117.943649,148.377045 
	C119.603287,146.225159 120.940514,148.234650 122.489304,149.724075 
	C129.226807,156.203384 140.351654,154.271271 145.064178,146.200043 
	C145.745453,145.033203 147.487183,144.485519 148.738190,143.651337 
	C148.894318,145.284775 149.685242,147.204849 149.099045,148.503113 
	C146.229721,154.857788 140.475922,157.234848 133.698441,158.588715 
z"/>
<path fill="#894E32" opacity="1.000000" stroke="none" 
	d="
M92.105293,153.662628 
	C91.732971,153.450912 91.386177,152.879028 90.944588,151.973846 
	C91.276802,152.194519 91.703812,152.748489 92.105293,153.662628 
z"/>
<path fill="#8E5A37" opacity="1.000000" stroke="none" 
	d="
M87.023979,161.061508 
	C87.819206,159.661896 88.606941,158.634491 89.394676,157.607071 
	C90.206657,158.731659 91.669312,159.869308 91.647110,160.977173 
	C91.625038,162.078705 90.110626,163.150314 89.250626,164.235046 
	C88.505920,163.301270 87.761200,162.367477 87.023979,161.061508 
z"/>
<path fill="#8E5A37" opacity="1.000000" stroke="none" 
	d="
M197.003250,118.997116 
	C197.432709,119.319908 197.858917,119.645584 198.285141,119.971252 
	C198.190063,120.077354 198.095001,120.183456 197.999939,120.289566 
	C197.702637,120.013947 197.405350,119.738319 197.051193,119.234512 
	C196.994324,119.006340 197.000000,119.000000 197.003250,118.997116 
z"/>
<path fill="#B0BAC2" opacity="1.000000" stroke="none" 
	d="
M112.732819,244.705414 
	C119.022415,243.017120 124.885941,241.310562 130.814224,239.870575 
	C131.808319,239.629135 133.082932,240.542648 134.227921,240.922516 
	C133.684616,242.319946 133.424103,244.708725 132.553040,244.957199 
	C125.890488,246.857742 119.123222,248.408493 112.341240,249.844742 
	C111.705696,249.979340 109.952858,248.300354 110.079643,247.932693 
	C110.483543,246.761459 111.530167,245.811859 112.732819,244.705414 
z"/>
<path fill="#B2BBC3" opacity="1.000000" stroke="none" 
	d="
M127.961014,279.750549 
	C132.498703,278.570770 136.637207,277.402527 140.837219,276.530731 
	C141.658768,276.360199 143.220398,277.120361 143.535309,277.844849 
	C143.888184,278.656586 143.565445,280.430328 142.913635,280.877655 
	C141.337997,281.958984 139.453842,282.700409 137.595016,283.233521 
	C134.890793,284.009094 132.123535,284.706757 129.336945,285.003601 
	C127.464828,285.203033 125.512756,284.651825 123.596458,284.436462 
	C124.925415,282.912903 126.254372,281.389343 127.961014,279.750549 
z"/>
<path fill="#B2BBC3" opacity="1.000000" stroke="none" 
	d="
M138.205505,268.149475 
	C132.637650,270.200012 127.372955,272.063293 122.030052,273.665741 
	C121.265686,273.895020 119.419762,272.989868 119.311569,272.387482 
	C119.123718,271.341614 119.627373,269.343353 120.318916,269.099487 
	C125.575233,267.245819 130.925980,265.635681 136.328644,264.271912 
	C136.718643,264.173462 137.750320,266.617065 138.205505,268.149475 
z"/>
<path fill="#B2BBC3" opacity="1.000000" stroke="none" 
	d="
M134.481400,256.719116 
	C129.362228,258.154144 124.598595,259.534760 119.748123,260.460327 
	C118.362892,260.724640 116.725845,259.669281 115.204269,259.219086 
	C115.145058,258.601349 115.085846,257.983612 115.026642,257.365845 
	C117.402626,256.221985 119.683937,254.763092 122.178398,254.013412 
	C125.342972,253.062317 128.658035,252.419601 131.950211,252.141876 
	C134.983170,251.886017 137.127228,252.899246 134.481400,256.719116 
z"/>
</svg>